<svg xmlns="http://www.w3.org/2000/svg" width="1600" height="900" viewBox="0 0 1600 900" role="img" aria-label="HoboApp overview placeholder">
  <defs>
    <linearGradient id="bg" x1="0" y1="0" x2="1" y2="1">
      <stop offset="0%" stop-color="#06111a"/>
      <stop offset="100%" stop-color="#0f2a1f"/>
    </linearGradient>
  </defs>
  <rect width="1600" height="900" fill="url(#bg)"/>
  <rect x="50" y="50" width="1500" height="80" rx="18" fill="#13212f" stroke="#2dd4bf" opacity="0.95"/>
  <rect x="50" y="160" width="360" height="690" rx="22" fill="#0f172a" stroke="#1f2937"/>
  <rect x="440" y="160" width="1110" height="690" rx="22" fill="#0b1220" stroke="#334155"/>
  <rect x="470" y="190" width="1050" height="630" rx="18" fill="#12263a"/>
  <circle cx="760" cy="420" r="170" fill="#16384d" stroke="#22c55e" stroke-width="4" opacity="0.8"/>
  <circle cx="760" cy="420" r="10" fill="#22c55e"/>
  <circle cx="640" cy="350" r="8" fill="#38bdf8"/>
  <circle cx="900" cy="310" r="8" fill="#f59e0b"/>
  <circle cx="980" cy="500" r="8" fill="#ef4444"/>
  <circle cx="620" cy="560" r="8" fill="#a855f7"/>
  <rect x="80" y="190" width="300" height="56" rx="12" fill="#162230"/>
  <rect x="80" y="265" width="300" height="110" rx="16" fill="#162230"/>
  <rect x="80" y="395" width="300" height="110" rx="16" fill="#162230"/>
  <rect x="80" y="525" width="300" height="110" rx="16" fill="#162230"/>
  <rect x="80" y="655" width="300" height="165" rx="16" fill="#162230"/>
  <text x="80" y="115" fill="#e2e8f0" font-family="Arial, sans-serif" font-size="38" font-weight="700">HoboApp</text>
  <text x="80" y="232" fill="#93c5fd" font-family="Arial, sans-serif" font-size="24">Search Washington stealth camping data</text>
  <text x="800" y="790" fill="#94a3b8" font-family="Arial, sans-serif" font-size="28" text-anchor="middle">Placeholder screenshot — replace with real app capture</text>
</svg>