<svg xmlns="http://www.w3.org/2000/svg" width="1600" height="900" viewBox="0 0 1600 900" role="img" aria-label="HoboApp trip planner placeholder">
  <defs>
    <linearGradient id="g" x1="0" y1="0" x2="1" y2="1">
      <stop offset="0%" stop-color="#081019"/>
      <stop offset="100%" stop-color="#10261c"/>
    </linearGradient>
  </defs>
  <rect width="1600" height="900" fill="url(#g)"/>
  <rect x="50" y="50" width="1500" height="120" rx="22" fill="#0f1b29" stroke="#22c55e"/>
  <rect x="50" y="210" width="470" height="640" rx="22" fill="#0f172a" stroke="#1f2937"/>
  <rect x="560" y="210" width="470" height="640" rx="22" fill="#0f172a" stroke="#1f2937"/>
  <rect x="1070" y="210" width="480" height="640" rx="22" fill="#0f172a" stroke="#1f2937"/>
  <rect x="85" y="260" width="400" height="90" rx="16" fill="#162230"/>
  <rect x="85" y="375" width="400" height="90" rx="16" fill="#162230"/>
  <rect x="85" y="490" width="400" height="90" rx="16" fill="#162230"/>
  <rect x="85" y="605" width="400" height="90" rx="16" fill="#162230"/>
  <rect x="595" y="260" width="400" height="240" rx="16" fill="#162230"/>
  <rect x="595" y="530" width="400" height="240" rx="16" fill="#162230"/>
  <rect x="1105" y="260" width="410" height="510" rx="16" fill="#162230"/>
  <path d="M260 305 C430 310, 650 390, 780 470 S1090 610, 1310 500" fill="none" stroke="#38bdf8" stroke-width="6" stroke-dasharray="14 10"/>
  <circle cx="260" cy="305" r="14" fill="#22c55e"/>
  <circle cx="780" cy="470" r="14" fill="#f59e0b"/>
  <circle cx="1310" cy="500" r="14" fill="#ef4444"/>
  <text x="85" y="125" fill="#e2e8f0" font-family="Arial, sans-serif" font-size="38" font-weight="700">Trip planner and multi-night route</text>
  <text x="800" y="825" fill="#94a3b8" font-family="Arial, sans-serif" font-size="28" text-anchor="middle">Placeholder screenshot — replace with real trip planner capture</text>
</svg>